PathFileType	4	(X/Y/Z)	Walk5.trc
DataRate	CameraRate	NumFrames	NumMarkers	Units	OrigDataRate	OrigDataStartFrame	OrigNumFrames
200.000000	200.000000	5	61	mm	200.000000	567	775
Frame#	Times		RCAR		LTH3		RTH2		LBHD		LCAR		LUA1		LFA1		RTB3		LWRU		LElbow		RToe		RTB2		RMT5		C7		RMT1		RBHD		LWRR		RMMAL		RTB1		RWRU		RFA1		LTH2		RTB4		RLFC		LTH4		RPSI		RLMAL		T10		LASI		RBack		RTH1		STRN		LPSI		LElbowM		LLFC		RElbow		LTB4		RUA1		LTB3		LACR1		LCAL		RTH3		RCAL		RElbowM		LTB1		LToe		CLAV		LMFC		LTB2		RASI		LFHD		RACR1		RTH4		LMT5		RFHD		RWRR		LMMAL		RMFC		LLMAL		LMT1		LTH1
			X1	Y1	Z1	X2	Y2	Z2	X3	Y3	Z3	X4	Y4	Z4	X5	Y5	Z5	X6	Y6	Z6	X7	Y7	Z7	X8	Y8	Z8	X9	Y9	Z9	X10	Y10	Z10	X11	Y11	Z11	X12	Y12	Z12	X13	Y13	Z13	X14	Y14	Z14	X15	Y15	Z15	X16	Y16	Z16	X17	Y17	Z17	X18	Y18	Z18	X19	Y19	Z19	X20	Y20	Z20	X21	Y21	Z21	X22	Y22	Z22	X23	Y23	Z23	X24	Y24	Z24	X25	Y25	Z25	X26	Y26	Z26	X27	Y27	Z27	X28	Y28	Z28	X29	Y29	Z29	X30	Y30	Z30	X31	Y31	Z31	X32	Y32	Z32	X33	Y33	Z33	X34	Y34	Z34	X35	Y35	Z35	X36	Y36	Z36	X37	Y37	Z37	X38	Y38	Z38	X39	Y39	Z39	X40	Y40	Z40	X41	Y41	Z41	X42	Y42	Z42	X43	Y43	Z43	X44	Y44	Z44	X45	Y45	Z45	X46	Y46	Z46	X47	Y47	Z47	X48	Y48	Z48	X49	Y49	Z49	X50	Y50	Z50	X51	Y51	Z51	X52	Y52	Z52	X53	Y53	Z53	X54	Y54	Z54	X55	Y55	Z55	X56	Y56	Z56	X57	Y57	Z57	X58	Y58	Z58	X59	Y59	Z59	X60	Y60	Z60	X61	Y61	Z61

567	2.835	-90.979	810.43	327.79	-171.42	605.64	-182.95	80.907	718.24	140.05	-94.314	1622.4	-99.802	191.64	886.8	-310.91	-61.593	1283	-295.2	28.243	994.64	-330.07	151.44	198.43	71.709	109.09	887.93	-304.57	-50.701	1127	-331.47	318.84	49.471	88.427	120.05	281.56	140.24	223.09	25.973	143.14	-115.09	1496.6	-25.72	269.74	47.308	67.817	-82.593	1629.6	41.092	163.29	932.26	-259.48	156.03	98.663	35.31	139.77	383.81	83.84	-145.25	848.43	312.65	-158.32	985.38	302.5	-79.683	678.61	-172.87	146.98	291.1	76.163	64.749	497.02	152.92	-146.56	693.57	-193.87	-219.03	1006	38.408	124	67.454	112.42	-224.01	1275.9	-19.898	-25.848	1016.4	-159.7	-190.71	1411.6	105.71	-11.776	788.79	182.73	60.538	1233.2	-35.026	-227.28	1005.3	-38.34	-85.623	1104.7	-265	-213.2	507.21	-173.59	-156.89	1133	270.13	-282.36	285.31	-99.024	-96.138	1277.5	234.03	-336.93	205.82	-101.39	-48.808	1449.2	-193.52	-508.84	95.482	-100.55	41.244	605.84	158.34	74.984	30.519	58.576	-176.81	1116.7	193.31	-232.16	359.46	-99.862	-265.62	26.961	-109.99	15.18	1406.9	-30.687	-196.63	508.52	-44.298	-299.98	298.75	-171.72	-0.16839	1020.8	124.76	85.227	1668.4	-73.103	-35.213	1444.2	134.97	18.564	698.21	175.81	-368.22	24.941	-174.6	90.357	1670.6	3.3487	-79.977	846.01	271.99	-407.09	122.37	-62.499	73.925	510.86	20.184	-440.16	114.88	-144.57	-316.51	37.502	-93.049	-118.91	782.16	-205.32
568	2.84	-83.722	810.14	328.62	-163.68	604.97	-182.54	87.662	718.87	140.55	-88.714	1622.7	-98.414	194.99	885.96	-310.03	-56.809	1283.1	-293.98	31.924	994.38	-328.84	153.92	197.91	71.605	112.47	887.38	-303.51	-46.509	1127	-330.1	320.15	46.505	87.785	124.21	281.36	140.48	223.49	25.129	143.39	-109.37	1496.8	-24.436	270.55	45.552	67.463	-76.841	1629.8	42.476	166.92	931.54	-258.55	157.09	98.105	35.139	144.49	383.41	83.905	-138.07	848.08	313.64	-151.2	985.04	303.6	-72.43	678.45	-172.19	150.56	290.63	76.118	71.171	497.42	153.59	-139.39	693.09	-193.21	-212.88	1006.1	39.384	125.1	67.378	112.49	-218.23	1276	-18.74	-19.784	1016.6	-158.39	-184.85	1411.5	107.04	-4.9859	789.49	183.32	66.502	1233.6	-34.102	-221.25	1005.2	-37.425	-81.289	1104.8	-263.5	-205.19	506.61	-173.44	-149.93	1132.7	271.28	-277.13	285.67	-99.188	-89.718	1277.2	235.15	-332.92	207.05	-101.55	-43.314	1449.5	-192.44	-506.36	100.08	-100.33	47.931	606.49	158.97	75.255	30.99	58.914	-170.08	1116.3	194.57	-225.8	358.99	-100.04	-265.87	26.887	-109.98	20.914	1407.1	-29.616	-188.8	507.76	-44.23	-294.63	299.45	-171.84	6.2589	1021.1	125.61	90.848	1668.7	-71.868	-29.396	1444.1	136.08	25.304	698.87	176.4	-367.95	25.809	-174.28	96.057	1670.8	4.5866	-72.996	845.66	272.75	-404.17	124.63	-62.693	79.52	511.23	20.85	-437.63	117.82	-144.65	-316.22	37.336	-92.919	-112.27	781.86	-204.43
569	2.845	-76.317	809.92	329.41	-155.65	604.28	-182.17	94.331	719.52	141.05	-83.112	1623	-97.034	198.18	885.06	-309.16	-52.036	1283.3	-292.75	35.497	994.15	-327.59	156.27	197.43	71.498	115.69	886.83	-302.45	-42.365	1127.1	-328.69	321.33	43.843	87.236	128.21	281.17	140.71	223.8	24.482	143.66	-103.66	1497	-23.164	271.26	44.036	67.168	-71.096	1630	43.852	170.42	930.78	-257.63	158.02	97.619	34.949	149.05	383.05	83.983	-130.76	847.79	314.61	-143.97	984.77	304.68	-64.959	678.34	-171.51	153.98	290.21	76.077	77.459	497.81	154.25	-132	692.6	-192.57	-206.74	1006.4	40.367	126.08	67.359	112.52	-212.46	1276.1	-17.592	-13.739	1016.8	-157.08	-178.99	1411.4	108.37	1.7394	790.23	183.94	72.456	1234	-33.186	-215.23	1005.2	-36.501	-76.995	1105.1	-261.96	-196.84	505.98	-173.33	-142.89	1132.3	272.41	-271.58	286.08	-99.428	-83.245	1277.1	236.25	-328.61	208.36	-101.76	-37.82	1449.9	-191.35	-503.54	104.95	-100.05	54.528	607.18	159.65	75.491	31.427	59.213	-163.31	1116	195.84	-219.09	358.54	-100.32	-266.14	26.81	-109.97	26.64	1407.5	-28.557	-180.61	506.94	-44.23	-289	300.24	-172.01	12.674	1021.5	126.47	96.469	1669	-70.624	-23.566	1444.2	137.17	31.97	699.58	177.04	-367.61	26.806	-173.94	101.75	1671.1	5.8343	-65.903	845.38	273.47	-400.93	127	-62.904	85.036	511.65	21.506	-434.83	120.93	-144.72	-315.91	37.167	-92.778	-105.49	781.57	-203.53
570	2.85	-68.761	809.78	330.16	-147.36	603.57	-181.84	100.9	720.19	141.56	-77.511	1623.4	-95.664	201.21	884.12	-308.3	-47.272	1283.5	-291.51	38.965	993.95	-326.31	158.49	196.99	71.376	118.76	886.28	-301.39	-38.268	1127.3	-327.24	322.4	41.483	86.765	132.05	281	140.93	224.04	24.011	143.92	-97.971	1497.4	-21.905	271.89	42.75	66.919	-65.361	1630.2	45.218	173.8	929.99	-256.71	158.85	97.196	34.734	153.45	382.7	84.063	-123.3	847.57	315.55	-136.62	984.56	305.75	-57.274	678.27	-170.84	157.26	289.82	76.029	83.584	498.19	154.88	-124.4	692.11	-191.95	-200.62	1006.7	41.361	126.94	67.388	112.51	-206.69	1276.3	-16.455	-7.7171	1017.1	-155.8	-173.12	1411.4	109.7	8.3848	791	184.6	78.391	1234.5	-32.282	-209.24	1005.2	-35.565	-72.741	1105.4	-260.36	-188.16	505.32	-173.25	-135.78	1132.1	273.54	-265.69	286.53	-99.749	-76.719	1277	237.33	-323.96	209.77	-102.02	-32.327	1450.3	-190.27	-500.37	110.08	-99.712	61.003	607.9	160.36	75.698	31.827	59.469	-156.48	1115.7	197.1	-212.04	358.09	-100.7	-266.45	26.729	-109.95	32.354	1407.9	-27.512	-172.05	506.04	-44.299	-283.09	301.1	-172.24	19.07	1022	127.32	102.09	1669.5	-69.373	-17.721	1444.3	138.24	38.538	700.3	177.71	-367.16	27.947	-173.59	107.44	1671.5	7.0888	-58.697	845.18	274.15	-397.35	129.48	-63.139	90.455	512.1	22.139	-431.74	124.2	-144.78	-315.56	37.005	-92.628	-98.585	781.29	-202.63
571	2.855	-61.054	809.71	330.86	-138.79	602.83	-181.55	107.34	720.83	142.08	-71.913	1623.9	-94.308	204.09	883.12	-307.44	-42.515	1283.8	-290.26	42.33	993.79	-325	160.57	196.59	71.236	121.68	885.72	-300.31	-34.217	1127.5	-325.77	323.35	39.42	86.361	135.71	280.83	141.11	224.23	23.69	144.16	-92.298	1497.7	-20.663	272.44	41.678	66.703	-59.638	1630.5	46.571	177.05	929.16	-255.79	159.58	96.824	34.492	157.68	382.36	84.134	-115.7	847.42	316.48	-129.17	984.41	306.81	-49.38	678.24	-170.19	160.38	289.45	75.967	89.514	498.55	155.48	-116.6	691.6	-191.35	-194.52	1007	42.368	127.69	67.45	112.45	-200.94	1276.6	-15.326	-1.7252	1017.4	-154.53	-167.25	1411.5	111.02	14.937	791.78	185.29	84.303	1235	-31.39	-203.28	1005.3	-34.612	-68.528	1105.9	-258.71	-179.15	504.64	-173.22	-128.61	1131.9	274.66	-259.47	287.03	-100.15	-70.144	1277	238.4	-318.99	211.26	-102.33	-26.841	1450.8	-189.19	-496.81	115.45	-99.328	67.325	608.61	161.08	75.882	32.186	59.677	-149.6	1115.6	198.35	-204.63	357.65	-101.18	-266.76	26.648	-109.93	38.054	1408.3	-26.483	-163.11	505.07	-44.437	-276.88	302.05	-172.51	25.441	1022.7	128.18	107.7	1669.9	-68.118	-11.863	1444.5	139.28	44.985	701.01	178.41	-366.59	29.249	-173.24	113.12	1671.8	8.3465	-51.376	845.07	274.79	-393.42	132.06	-63.399	95.753	512.57	22.74	-428.34	127.63	-144.82	-315.17	36.866	-92.473	-91.543	781.02	-201.73
